<svg xmlns="http://www.w3.org/2000/svg" version="1.1" xmlns:xlink="http://www.w3.org/1999/xlink" width="400" height="400"><svg width="400" height="400" viewBox="0 0 105.83333 105.83333" xmlns="http://www.w3.org/2000/svg">
  <path d="m 39.901072,14.770924 a 17.082573,17.082573 0 0 0 -2.36577,3.77993 17.082573,17.082573 0 0 0 4.91359,20.47104 l -0.004,0.009 35.48312,30.16268 2.6694,-5.84646 -24.55991,-20.87716 a 17.082573,17.082573 0 0 0 12.57633,-9.7284 17.082573,17.082573 0 0 0 -8.44405,-22.63484 17.082573,17.082573 0 0 0 -20.26865,4.66444 z m -11.99577,21.61906 -2.66938,5.84647 24.85357,21.12688 a 17.082573,17.082573 0 0 0 -12.57632,9.72841 17.082573,17.082573 0 0 0 8.44403,22.63483 17.082573,17.082573 0 0 0 22.63445,-8.44437 17.082573,17.082573 0 0 0 -5.21477,-20.70477 l 0.0115,-0.0248 z" style="stroke-width:2.9706;paint-order:markers stroke fill"></path>
</svg><style>@media (prefers-color-scheme: light) { :root { filter: none; } }
@media (prefers-color-scheme: dark) { :root { filter: invert(100%); } }
</style></svg>